<svg width="1156" height="243" viewBox="0 0 1156 243" fill="none" xmlns="http://www.w3.org/2000/svg">
<path fill-rule="evenodd" clip-rule="evenodd" d="M221.893 76.1899C232.127 60.0539 226.761 38.3085 209.908 27.62C193.055 16.9316 171.097 21.3476 160.863 37.4836C159.453 39.7074 158.339 42.0377 157.51 44.4309C145.862 41.3573 132.764 40.0605 118.185 41.0551C103.607 42.0495 90.807 45.1128 79.6846 49.7395C78.5386 47.4804 77.1181 45.3225 75.4185 43.3104C63.0886 28.7145 40.7353 27.3216 25.4909 40.1992C10.2464 53.0768 7.88366 75.3485 20.2135 89.9444C22.9071 93.1331 26.0791 95.6917 29.5509 97.609C24.3026 108.852 21.2957 120.79 20.3369 132.456C16.3518 180.9 32.7454 225.903 130.342 219.245C227.937 212.586 238.069 165.775 227.54 118.322C225.007 106.896 220.407 95.478 213.682 85.0524C216.862 82.6812 219.657 79.7153 221.893 76.1899ZM201.173 69.4425C202.769 68.3095 204.169 66.862 205.274 65.1197C210.018 57.6401 207.531 47.5602 199.719 42.6056C191.907 37.6511 181.728 39.6981 176.984 47.1778C176.223 48.3782 175.648 49.6457 175.251 50.9481C185.308 55.7933 193.938 62.1285 201.173 69.4425ZM59.6542 55.2315C60.6896 56.4571 61.4974 57.8015 62.0828 59.2161C53.1745 65.2677 45.7778 72.5065 39.8017 80.4764C37.8161 79.5685 36.006 78.2287 34.517 76.466C28.9027 69.8198 29.9785 59.6786 36.92 53.8148C43.8615 47.951 54.0399 48.5853 59.6542 55.2315ZM212.741 150.666C204.243 164.926 193.754 170.003 170.305 171.22C170.305 171.22 170.941 157.284 153.484 152.297C141.393 148.842 135.135 148.467 124.047 149.668C112.364 150.933 103.02 153.874 94.6098 159.656C85.0999 166.194 84.6223 177.003 84.6223 177.003C61.2248 178.981 49.7476 175.464 39.3925 162.492C34.9999 156.991 32.6063 150.15 32.2634 143.122C30.2898 102.568 59.5702 61.535 119.206 56.0178C179.04 53.385 213.621 90.0614 217.172 130.508C217.788 137.517 216.346 144.619 212.741 150.666ZM101.184 131.264C102.041 143.813 97.2523 152.917 88.1563 153.538C79.0589 154.16 72.0242 145.86 71.1691 133.313C71.0047 130.895 71.0869 128.579 71.3975 126.415C72.215 120.65 74.6258 115.965 78.169 113.21C80.1815 111.621 82.5617 110.669 85.219 110.487C94.3164 109.868 100.329 118.724 101.184 131.264ZM164.338 148.342C173.434 147.721 178.222 138.617 177.365 126.068C176.51 113.526 170.498 104.67 161.4 105.291C158.743 105.472 156.363 106.425 154.35 108.014C150.807 110.769 148.396 115.454 147.579 121.218C147.268 123.383 147.186 125.699 147.351 128.117C148.206 140.664 155.24 148.963 164.338 148.342ZM166.772 174.013C167.785 188.874 156.877 201.747 129.27 203.603C101.672 205.513 89.1166 194.241 88.1032 179.38C87.0899 164.52 104.067 154.076 125.79 152.593C147.513 151.112 165.759 159.153 166.772 174.013ZM139.373 167.705C137.722 170.347 134.374 173.754 127.842 174.791C127.665 174.803 127.486 174.815 127.308 174.828C127.129 174.84 126.95 174.852 126.773 174.864C120.167 174.723 116.386 171.803 114.392 169.409C112.91 167.632 113.299 164.995 115.242 163.741C119.578 160.953 125.808 160.533 126.304 160.499L126.329 160.497H126.335L126.354 160.496C126.811 160.464 133.068 160.023 137.759 162.205C139.858 163.182 140.599 165.741 139.373 167.705Z" fill="url(#paint0_linear_506_643)"/>
<path d="M354.587 115.336C353.025 105.666 346.256 100.279 334.981 100.279C325.025 100.279 318.702 105.103 318.702 111.648C318.702 118.024 324.334 120.149 331.953 122.009L348.413 126.015C364.353 130.032 381.121 134.271 381.121 157.978C381.121 179.698 361.388 189.187 338.031 189.187C312.964 189.187 294.081 177.498 291.499 155.184L315.588 152.75C316.896 165.948 326.64 170.995 338.361 170.995C348.721 170.995 356.425 166.628 356.425 158.86C356.425 151.092 350.485 148.935 340.369 146.353L324.674 142.315C310.286 138.564 294.772 133.729 294.772 113.072C294.772 93.0953 312.634 82.4055 335.895 82.4055C358.742 82.4055 374.373 93.4141 378.145 113.742L354.587 115.336Z" fill="#131416"/>
<path d="M465.206 165.883C462.464 176.509 451.923 190.408 427.047 190.408C402.723 190.408 387.878 175.213 387.878 150.815C387.878 126.205 402.383 110.935 426.983 110.935C451.583 110.935 467.799 126.269 465.95 155.331H411.129C411.331 167.307 417.504 175.085 427.068 175.085C436.94 175.085 440.712 169.081 441.945 164.321L465.206 165.883ZM411.341 141.56H442.689C442.157 132.708 436.642 125.876 426.983 125.876C417.324 125.876 411.872 132.708 411.341 141.56Z" fill="#131416"/>
<path d="M520.164 135.811C518.868 129.085 513.576 125.323 506.637 125.323C500.134 125.323 495.416 128.107 495.416 133.271C495.416 138.17 500.389 139.647 508.019 140.943L515.925 142.165C529.792 144.45 543.415 148.541 543.415 165.872C543.415 182.874 527.762 190.408 507.2 190.408C487.106 190.408 472.622 181.758 470.008 166.478L491.378 163.928C492.887 172.046 498.625 176.02 507.37 176.02C515.191 176.02 520.218 172.577 520.218 166.914C520.218 162.259 515.011 160.113 506.775 158.774L498.115 157.403C485.756 155.48 472.675 151.028 472.675 134.493C472.675 119.224 488.615 110.935 506.435 110.935C524.659 110.935 538.569 119.256 541.119 133.409L520.164 135.811Z" fill="#131416"/>
<path d="M598.413 135.811C597.116 129.085 591.825 125.323 584.886 125.323C578.382 125.323 573.664 128.107 573.664 133.271C573.664 138.17 578.637 139.647 586.267 140.943L594.173 142.165C607.987 144.45 621.663 148.541 621.663 165.872C621.663 182.874 606.011 190.408 585.449 190.408C565.354 190.408 550.871 181.758 548.257 166.478L569.626 163.928C571.135 172.046 576.873 176.02 585.566 176.02C593.376 176.02 598.402 172.577 598.402 166.914C598.402 162.259 593.206 160.113 584.971 158.774L576.395 157.403C564.047 155.48 550.966 151.028 550.966 134.493C550.966 119.224 566.906 110.935 584.726 110.935C602.95 110.935 616.86 119.256 619.4 133.409L598.413 135.811Z" fill="#131416"/>
<path d="M650.603 85.9763V103.764H627.874V85.9763H650.603ZM650.603 113.721V189.602H627.874V113.721H650.603Z" fill="#131416"/>
<path d="M738.048 150.751C738.048 175.276 723.172 190.408 698.327 190.408C673.483 190.408 658.542 175.276 658.542 150.751C658.542 126.226 673.419 110.935 698.327 110.935C723.235 110.935 738.048 126.152 738.048 150.751ZM714.883 150.751C714.883 134.865 708.422 127.576 698.327 127.576C688.232 127.576 681.708 134.865 681.708 150.751C681.708 166.637 688.168 173.778 698.327 173.778C708.486 173.778 714.883 166.627 714.883 150.751Z" fill="#131416"/>
<path d="M768.614 122.911C773.406 116.163 781.078 110.935 792.778 110.935C807.761 110.935 819.397 119.564 819.397 138.818V188.612H796.667V144.28C796.667 133.112 792.024 129.021 783.746 129.021C775.999 129.021 768.986 134.886 768.986 147.436V188.559H746.256V112.678H768.04V122.911H768.614Z" fill="#131416"/>
<path d="M1000.11 165.883C997.368 176.509 986.816 190.408 961.95 190.408C937.627 190.408 922.771 175.213 922.771 150.815C922.771 126.205 937.287 110.935 961.887 110.935C986.487 110.935 1002.69 126.269 1000.84 155.331H946.032C946.234 167.307 952.408 175.085 961.972 175.085C971.854 175.085 975.626 169.081 976.848 164.321L1000.11 165.883ZM946.234 141.56H977.614C977.082 132.708 971.567 125.876 961.908 125.876C952.249 125.876 946.797 132.708 946.234 141.56Z" fill="#131416"/>
<path d="M1059.31 188.612C1057.94 187.018 1057.19 183.065 1057.19 177.827C1053.09 185.892 1043.18 190.408 1032.31 190.408C1019.18 190.408 1006.95 182.13 1006.95 168.019C1006.95 151.782 1018.29 145.619 1038 143.154C1053.24 141.177 1057.13 139.137 1057.13 134.727C1057.13 129.52 1053.06 126.407 1045.23 126.407C1042.02 126.3 1038.88 127.281 1036.3 129.191C1033.72 131.102 1031.86 133.828 1031.03 136.927L1009.91 134.313C1013.28 119.553 1026.91 110.935 1045.72 110.935C1069 110.935 1079.86 120.849 1079.86 136.215V173.895C1079.86 181.503 1080 185.711 1081.86 188.612H1059.31ZM1057.11 152.048C1054.68 153.78 1049.11 154.683 1042.34 155.767C1035.32 156.925 1030.11 160.251 1030.11 166.563C1030.11 172.184 1034.05 175.521 1040.16 175.521C1047.27 175.521 1057.16 171.015 1057.16 159.305L1057.11 152.048Z" fill="#131416"/>
<path d="M1112.1 124.495H1112.68C1116.85 116.345 1124.37 110.936 1135.69 110.936C1137.24 110.919 1138.78 111.108 1140.27 111.5V132.529C1137.57 132.196 1134.86 132.008 1132.13 131.966C1121.21 131.966 1113.01 136.524 1113.01 151.347V188.539H1090.3V112.732H1112.08L1112.1 124.495Z" fill="#131416"/>
<path d="M881.43 85.9763C902.236 85.9763 914.18 96.9955 914.18 113.508C914.18 123.136 909.239 129.83 901.131 133.571V134.144C910.801 138.076 917.538 145.78 917.538 157.926C917.538 176.755 905.169 188.178 883.534 188.178H829.977V85.9763H881.43ZM876.382 127.747C885.298 127.747 889.941 123.306 889.941 116.059C889.941 108.812 885.298 104.317 876.382 104.317H854.311V127.79L876.382 127.747ZM878.167 169.444C887.731 169.444 892.757 164.663 892.757 156.81C892.757 148.957 887.784 144.186 878.167 144.186H854.311V169.444H878.167Z" fill="#131416"/>
<defs>
<linearGradient id="paint0_linear_506_643" x1="63.1363" y1="2.74561" x2="172.898" y2="269.149" gradientUnits="userSpaceOnUse">
<stop stop-color="#1EA0FF"/>
<stop offset="1" stop-color="#004EEB"/>
</linearGradient>
</defs>
</svg>
